<?xml version="1.0" standalone="no"?>
<!DOCTYPE svg PUBLIC "-//W3C//DTD SVG 20010904//EN"
 "http://www.w3.org/TR/2001/REC-SVG-20010904/DTD/svg10.dtd">
<svg version="1.0" xmlns="http://www.w3.org/2000/svg"
 width="683.000000pt" height="506.000000pt" viewBox="0 0 683.000000 506.000000"
 preserveAspectRatio="xMidYMid meet">

<g transform="translate(0.000000,506.000000) scale(0.100000,-0.100000)"
fill="#000000" stroke="none">
<path d="M6585 4616 c-22 -13 -128 -69 -235 -126 -471 -249 -838 -472 -1415
-859 -203 -136 -315 -213 -680 -467 -49 -35 -139 -97 -200 -138 -60 -41 -166
-114 -235 -162 -69 -47 -327 -221 -575 -386 -518 -346 -610 -410 -870 -604
-182 -135 -376 -291 -383 -306 -2 -5 -10 -8 -17 -8 -16 0 -22 21 -119 400
-191 753 -313 1160 -379 1263 -19 28 -60 76 -92 105 -102 93 -206 133 -350
133 -132 -1 -231 -34 -325 -110 -134 -108 -194 -234 -194 -406 0 -98 2 -103
58 -250 97 -252 122 -320 210 -590 106 -324 191 -594 250 -795 25 -85 50 -168
56 -185 22 -70 130 -445 145 -504 49 -193 180 -322 372 -367 104 -25 276 -15
368 22 69 27 79 36 480 435 226 224 463 458 527 521 64 62 174 169 245 238
113 111 301 290 643 615 236 224 386 371 830 811 459 454 671 662 720 704 14
12 54 49 90 84 128 122 409 371 560 496 30 25 70 59 90 76 38 33 346 278 420
334 78 58 79 67 5 26z"/>
</g>
</svg>
