<?xml version="1.0" standalone="no"?>
<!DOCTYPE svg PUBLIC "-//W3C//DTD SVG 20010904//EN"
 "http://www.w3.org/TR/2001/REC-SVG-20010904/DTD/svg10.dtd">
<svg version="1.0" xmlns="http://www.w3.org/2000/svg"
 width="487.000000pt" height="536.000000pt" viewBox="0 0 487.000000 536.000000"
 preserveAspectRatio="xMidYMid meet">

<g transform="translate(0.000000,536.000000) scale(0.100000,-0.100000)"
fill="#000000" stroke="none">
<path d="M730 5259 c-30 -5 -88 -25 -128 -44 -243 -115 -348 -400 -232 -630
16 -33 84 -127 151 -210 135 -168 448 -581 614 -810 145 -200 332 -450 417
-557 l69 -87 -103 -138 c-422 -565 -825 -1276 -1348 -2378 -78 -165 -145 -304
-148 -310 -11 -21 30 26 188 220 464 566 855 1001 1295 1440 263 263 612 591
641 602 8 3 66 -41 131 -99 433 -382 896 -740 1647 -1273 225 -159 482 -345
572 -411 90 -67 164 -119 164 -114 0 12 -201 258 -530 650 -497 591 -778 939
-1016 1255 -80 106 -341 465 -358 494 -7 11 162 162 379 340 399 327 664 496
1171 747 271 134 294 147 348 204 106 111 152 265 122 410 -21 97 -59 172
-121 235 -65 67 -117 99 -212 131 -69 23 -89 26 -178 22 -125 -6 -163 -20
-371 -139 -498 -285 -1246 -824 -1605 -1157 l-57 -53 -164 218 c-186 248 -301
418 -583 858 -248 387 -292 447 -373 502 -104 71 -257 104 -382 82z"/>
</g>
</svg>
